<mxfile host="app.diagrams.net" modified="2021-07-28T03:50:52.019Z" agent="5.0 (Macintosh; Intel Mac OS X 10_15_7) AppleWebKit/537.36 (KHTML, like Gecko) Chrome/92.0.4515.107 Safari/537.36" etag="79Eb4cA9xVxFlia5QWET" version="14.7.6" type="github">
  <diagram id="HkFWZjDMgI0jHzRYYpE6" name="Page-1">
    <mxGraphModel dx="1186" dy="764" grid="1" gridSize="10" guides="1" tooltips="1" connect="1" arrows="1" fold="1" page="1" pageScale="1" pageWidth="827" pageHeight="1169" math="0" shadow="0">
      <root>
        <mxCell id="0" />
        <mxCell id="1" parent="0" />
        <mxCell id="huZdh_4YWuAhXo4pvME7-1" style="edgeStyle=orthogonalEdgeStyle;rounded=0;orthogonalLoop=1;jettySize=auto;html=1;entryX=0.5;entryY=0;entryDx=0;entryDy=0;" edge="1" parent="1" source="huZdh_4YWuAhXo4pvME7-2" target="huZdh_4YWuAhXo4pvME7-9">
          <mxGeometry relative="1" as="geometry" />
        </mxCell>
        <mxCell id="huZdh_4YWuAhXo4pvME7-2" value="field1(int)" style="rounded=0;whiteSpace=wrap;html=1;" vertex="1" parent="1">
          <mxGeometry x="130" y="680" width="100" height="30" as="geometry" />
        </mxCell>
        <mxCell id="huZdh_4YWuAhXo4pvME7-3" value="field2(string)" style="rounded=0;whiteSpace=wrap;html=1;" vertex="1" parent="1">
          <mxGeometry x="230" y="680" width="100" height="30" as="geometry" />
        </mxCell>
        <mxCell id="huZdh_4YWuAhXo4pvME7-4" value="field3(boolean)" style="rounded=0;whiteSpace=wrap;html=1;" vertex="1" parent="1">
          <mxGeometry x="330" y="680" width="100" height="30" as="geometry" />
        </mxCell>
        <mxCell id="huZdh_4YWuAhXo4pvME7-5" value="field4(long)" style="rounded=0;whiteSpace=wrap;html=1;" vertex="1" parent="1">
          <mxGeometry x="430" y="680" width="100" height="30" as="geometry" />
        </mxCell>
        <mxCell id="huZdh_4YWuAhXo4pvME7-6" value="field5(float)" style="rounded=0;whiteSpace=wrap;html=1;" vertex="1" parent="1">
          <mxGeometry x="530" y="680" width="100" height="30" as="geometry" />
        </mxCell>
        <mxCell id="huZdh_4YWuAhXo4pvME7-7" value="field6(double)" style="rounded=0;whiteSpace=wrap;html=1;" vertex="1" parent="1">
          <mxGeometry x="630" y="680" width="100" height="30" as="geometry" />
        </mxCell>
        <mxCell id="huZdh_4YWuAhXo4pvME7-8" style="edgeStyle=orthogonalEdgeStyle;rounded=0;orthogonalLoop=1;jettySize=auto;html=1;" edge="1" parent="1" source="huZdh_4YWuAhXo4pvME7-9">
          <mxGeometry relative="1" as="geometry">
            <mxPoint x="180" y="980" as="targetPoint" />
          </mxGeometry>
        </mxCell>
        <mxCell id="huZdh_4YWuAhXo4pvME7-9" value="ColumnWriter" style="rounded=1;whiteSpace=wrap;html=1;fillColor=#f8cecc;strokeColor=#b85450;" vertex="1" parent="1">
          <mxGeometry x="140" y="780" width="80" height="100" as="geometry" />
        </mxCell>
        <mxCell id="huZdh_4YWuAhXo4pvME7-10" style="edgeStyle=orthogonalEdgeStyle;rounded=0;orthogonalLoop=1;jettySize=auto;html=1;entryX=0.5;entryY=0;entryDx=0;entryDy=0;" edge="1" parent="1" target="huZdh_4YWuAhXo4pvME7-12">
          <mxGeometry relative="1" as="geometry">
            <mxPoint x="280" y="710" as="sourcePoint" />
          </mxGeometry>
        </mxCell>
        <mxCell id="huZdh_4YWuAhXo4pvME7-11" style="edgeStyle=orthogonalEdgeStyle;rounded=0;orthogonalLoop=1;jettySize=auto;html=1;" edge="1" parent="1" source="huZdh_4YWuAhXo4pvME7-12">
          <mxGeometry relative="1" as="geometry">
            <mxPoint x="280" y="980" as="targetPoint" />
          </mxGeometry>
        </mxCell>
        <mxCell id="huZdh_4YWuAhXo4pvME7-12" value="ColumnWriter" style="rounded=1;whiteSpace=wrap;html=1;fillColor=#f8cecc;strokeColor=#b85450;" vertex="1" parent="1">
          <mxGeometry x="240" y="780" width="80" height="100" as="geometry" />
        </mxCell>
        <mxCell id="huZdh_4YWuAhXo4pvME7-13" style="edgeStyle=orthogonalEdgeStyle;rounded=0;orthogonalLoop=1;jettySize=auto;html=1;entryX=0.5;entryY=0;entryDx=0;entryDy=0;" edge="1" parent="1" target="huZdh_4YWuAhXo4pvME7-15">
          <mxGeometry relative="1" as="geometry">
            <mxPoint x="380" y="710" as="sourcePoint" />
          </mxGeometry>
        </mxCell>
        <mxCell id="huZdh_4YWuAhXo4pvME7-14" style="edgeStyle=orthogonalEdgeStyle;rounded=0;orthogonalLoop=1;jettySize=auto;html=1;" edge="1" parent="1" source="huZdh_4YWuAhXo4pvME7-15">
          <mxGeometry relative="1" as="geometry">
            <mxPoint x="380" y="980" as="targetPoint" />
          </mxGeometry>
        </mxCell>
        <mxCell id="huZdh_4YWuAhXo4pvME7-15" value="ColumnWriter" style="rounded=1;whiteSpace=wrap;html=1;fillColor=#f8cecc;strokeColor=#b85450;" vertex="1" parent="1">
          <mxGeometry x="340" y="780" width="80" height="100" as="geometry" />
        </mxCell>
        <mxCell id="huZdh_4YWuAhXo4pvME7-16" style="edgeStyle=orthogonalEdgeStyle;rounded=0;orthogonalLoop=1;jettySize=auto;html=1;entryX=0.5;entryY=0;entryDx=0;entryDy=0;" edge="1" parent="1" target="huZdh_4YWuAhXo4pvME7-18">
          <mxGeometry relative="1" as="geometry">
            <mxPoint x="480" y="710" as="sourcePoint" />
          </mxGeometry>
        </mxCell>
        <mxCell id="huZdh_4YWuAhXo4pvME7-17" style="edgeStyle=orthogonalEdgeStyle;rounded=0;orthogonalLoop=1;jettySize=auto;html=1;" edge="1" parent="1" source="huZdh_4YWuAhXo4pvME7-18">
          <mxGeometry relative="1" as="geometry">
            <mxPoint x="480" y="980" as="targetPoint" />
          </mxGeometry>
        </mxCell>
        <mxCell id="huZdh_4YWuAhXo4pvME7-18" value="ColumnWriter" style="rounded=1;whiteSpace=wrap;html=1;fillColor=#f8cecc;strokeColor=#b85450;" vertex="1" parent="1">
          <mxGeometry x="440" y="780" width="80" height="100" as="geometry" />
        </mxCell>
        <mxCell id="huZdh_4YWuAhXo4pvME7-19" style="edgeStyle=orthogonalEdgeStyle;rounded=0;orthogonalLoop=1;jettySize=auto;html=1;entryX=0.5;entryY=0;entryDx=0;entryDy=0;" edge="1" parent="1" target="huZdh_4YWuAhXo4pvME7-21">
          <mxGeometry relative="1" as="geometry">
            <mxPoint x="580" y="710" as="sourcePoint" />
          </mxGeometry>
        </mxCell>
        <mxCell id="huZdh_4YWuAhXo4pvME7-20" style="edgeStyle=orthogonalEdgeStyle;rounded=0;orthogonalLoop=1;jettySize=auto;html=1;" edge="1" parent="1" source="huZdh_4YWuAhXo4pvME7-21">
          <mxGeometry relative="1" as="geometry">
            <mxPoint x="580" y="980" as="targetPoint" />
          </mxGeometry>
        </mxCell>
        <mxCell id="huZdh_4YWuAhXo4pvME7-21" value="ColumnWriter" style="rounded=1;whiteSpace=wrap;html=1;fillColor=#f8cecc;strokeColor=#b85450;" vertex="1" parent="1">
          <mxGeometry x="540" y="780" width="80" height="100" as="geometry" />
        </mxCell>
        <mxCell id="huZdh_4YWuAhXo4pvME7-22" style="edgeStyle=orthogonalEdgeStyle;rounded=0;orthogonalLoop=1;jettySize=auto;html=1;entryX=0.5;entryY=0;entryDx=0;entryDy=0;" edge="1" parent="1" target="huZdh_4YWuAhXo4pvME7-24">
          <mxGeometry relative="1" as="geometry">
            <mxPoint x="680" y="710" as="sourcePoint" />
          </mxGeometry>
        </mxCell>
        <mxCell id="huZdh_4YWuAhXo4pvME7-23" style="edgeStyle=orthogonalEdgeStyle;rounded=0;orthogonalLoop=1;jettySize=auto;html=1;" edge="1" parent="1" source="huZdh_4YWuAhXo4pvME7-24">
          <mxGeometry relative="1" as="geometry">
            <mxPoint x="680" y="980" as="targetPoint" />
          </mxGeometry>
        </mxCell>
        <mxCell id="huZdh_4YWuAhXo4pvME7-24" value="ColumnWriter" style="rounded=1;whiteSpace=wrap;html=1;fillColor=#f8cecc;strokeColor=#b85450;" vertex="1" parent="1">
          <mxGeometry x="640" y="780" width="80" height="100" as="geometry" />
        </mxCell>
        <mxCell id="huZdh_4YWuAhXo4pvME7-25" style="edgeStyle=orthogonalEdgeStyle;rounded=0;orthogonalLoop=1;jettySize=auto;html=1;entryX=0.5;entryY=0;entryDx=0;entryDy=0;" edge="1" parent="1" source="huZdh_4YWuAhXo4pvME7-27" target="huZdh_4YWuAhXo4pvME7-44">
          <mxGeometry relative="1" as="geometry">
            <mxPoint x="180" y="1180" as="targetPoint" />
          </mxGeometry>
        </mxCell>
        <mxCell id="huZdh_4YWuAhXo4pvME7-26" value="writeInt" style="text;html=1;align=center;verticalAlign=middle;resizable=0;points=[];labelBackgroundColor=#ffffff;" vertex="1" connectable="0" parent="huZdh_4YWuAhXo4pvME7-25">
          <mxGeometry x="-0.12" y="-2" relative="1" as="geometry">
            <mxPoint x="0.5" y="-13" as="offset" />
          </mxGeometry>
        </mxCell>
        <mxCell id="huZdh_4YWuAhXo4pvME7-27" value="&lt;font style=&quot;font-size: 9px&quot;&gt;PlainValuesWriter&lt;/font&gt;" style="rounded=1;whiteSpace=wrap;html=1;fillColor=#dae8fc;strokeColor=#6c8ebf;" vertex="1" parent="1">
          <mxGeometry x="140" y="980" width="80" height="100" as="geometry" />
        </mxCell>
        <mxCell id="huZdh_4YWuAhXo4pvME7-28" style="edgeStyle=orthogonalEdgeStyle;rounded=0;orthogonalLoop=1;jettySize=auto;html=1;entryX=0.5;entryY=0;entryDx=0;entryDy=0;" edge="1" parent="1" source="huZdh_4YWuAhXo4pvME7-30" target="huZdh_4YWuAhXo4pvME7-46">
          <mxGeometry relative="1" as="geometry">
            <mxPoint x="280" y="1180" as="targetPoint" />
          </mxGeometry>
        </mxCell>
        <mxCell id="huZdh_4YWuAhXo4pvME7-29" value="writeBinary" style="text;html=1;align=center;verticalAlign=middle;resizable=0;points=[];labelBackgroundColor=#ffffff;" vertex="1" connectable="0" parent="huZdh_4YWuAhXo4pvME7-28">
          <mxGeometry x="-0.14" y="-2" relative="1" as="geometry">
            <mxPoint x="0.5" y="-13" as="offset" />
          </mxGeometry>
        </mxCell>
        <mxCell id="huZdh_4YWuAhXo4pvME7-30" value="&lt;span style=&quot;font-size: 9px&quot;&gt;PlainValuesWriter&lt;/span&gt;" style="rounded=1;whiteSpace=wrap;html=1;fillColor=#dae8fc;strokeColor=#6c8ebf;" vertex="1" parent="1">
          <mxGeometry x="240" y="980" width="80" height="100" as="geometry" />
        </mxCell>
        <mxCell id="huZdh_4YWuAhXo4pvME7-31" style="edgeStyle=orthogonalEdgeStyle;rounded=0;orthogonalLoop=1;jettySize=auto;html=1;entryX=0.5;entryY=0;entryDx=0;entryDy=0;" edge="1" parent="1" source="huZdh_4YWuAhXo4pvME7-33" target="huZdh_4YWuAhXo4pvME7-48">
          <mxGeometry relative="1" as="geometry">
            <mxPoint x="380" y="1190" as="targetPoint" />
          </mxGeometry>
        </mxCell>
        <mxCell id="huZdh_4YWuAhXo4pvME7-32" value="writeBoolean" style="text;html=1;align=center;verticalAlign=middle;resizable=0;points=[];labelBackgroundColor=#ffffff;" vertex="1" connectable="0" parent="huZdh_4YWuAhXo4pvME7-31">
          <mxGeometry x="-0.08" relative="1" as="geometry">
            <mxPoint x="0.5" y="-13" as="offset" />
          </mxGeometry>
        </mxCell>
        <mxCell id="huZdh_4YWuAhXo4pvME7-33" value="&lt;font style=&quot;font-size: 9px&quot;&gt;BooleanPlainValues&lt;br&gt;Writer&lt;/font&gt;" style="rounded=1;whiteSpace=wrap;html=1;fillColor=#dae8fc;strokeColor=#6c8ebf;" vertex="1" parent="1">
          <mxGeometry x="340" y="980" width="80" height="100" as="geometry" />
        </mxCell>
        <mxCell id="huZdh_4YWuAhXo4pvME7-34" style="edgeStyle=orthogonalEdgeStyle;rounded=0;orthogonalLoop=1;jettySize=auto;html=1;entryX=0.5;entryY=0;entryDx=0;entryDy=0;" edge="1" parent="1" source="huZdh_4YWuAhXo4pvME7-36" target="huZdh_4YWuAhXo4pvME7-50">
          <mxGeometry relative="1" as="geometry">
            <mxPoint x="480" y="1180" as="targetPoint" />
          </mxGeometry>
        </mxCell>
        <mxCell id="huZdh_4YWuAhXo4pvME7-35" value="writeLong" style="text;html=1;align=center;verticalAlign=middle;resizable=0;points=[];labelBackgroundColor=#ffffff;" vertex="1" connectable="0" parent="huZdh_4YWuAhXo4pvME7-34">
          <mxGeometry x="-0.12" y="-3" relative="1" as="geometry">
            <mxPoint x="0.5" y="-13" as="offset" />
          </mxGeometry>
        </mxCell>
        <mxCell id="huZdh_4YWuAhXo4pvME7-36" value="&lt;span style=&quot;font-size: 9px&quot;&gt;PlainValuesWriter&lt;/span&gt;" style="rounded=1;whiteSpace=wrap;html=1;fillColor=#dae8fc;strokeColor=#6c8ebf;" vertex="1" parent="1">
          <mxGeometry x="440" y="980" width="80" height="100" as="geometry" />
        </mxCell>
        <mxCell id="huZdh_4YWuAhXo4pvME7-37" style="edgeStyle=orthogonalEdgeStyle;rounded=0;orthogonalLoop=1;jettySize=auto;html=1;entryX=0.5;entryY=0;entryDx=0;entryDy=0;" edge="1" parent="1" source="huZdh_4YWuAhXo4pvME7-39" target="huZdh_4YWuAhXo4pvME7-52">
          <mxGeometry relative="1" as="geometry">
            <mxPoint x="580" y="1180" as="targetPoint" />
          </mxGeometry>
        </mxCell>
        <mxCell id="huZdh_4YWuAhXo4pvME7-38" value="writeFloat" style="text;html=1;align=center;verticalAlign=middle;resizable=0;points=[];labelBackgroundColor=#ffffff;" vertex="1" connectable="0" parent="huZdh_4YWuAhXo4pvME7-37">
          <mxGeometry x="-0.08" y="-1" relative="1" as="geometry">
            <mxPoint x="0.5" y="-13" as="offset" />
          </mxGeometry>
        </mxCell>
        <mxCell id="huZdh_4YWuAhXo4pvME7-39" value="&lt;span style=&quot;font-size: 9px&quot;&gt;PlainValuesWriter&lt;/span&gt;" style="rounded=1;whiteSpace=wrap;html=1;fillColor=#dae8fc;strokeColor=#6c8ebf;" vertex="1" parent="1">
          <mxGeometry x="540" y="980" width="80" height="100" as="geometry" />
        </mxCell>
        <mxCell id="huZdh_4YWuAhXo4pvME7-40" style="edgeStyle=orthogonalEdgeStyle;rounded=0;orthogonalLoop=1;jettySize=auto;html=1;entryX=0.5;entryY=0;entryDx=0;entryDy=0;" edge="1" parent="1" source="huZdh_4YWuAhXo4pvME7-42" target="huZdh_4YWuAhXo4pvME7-54">
          <mxGeometry relative="1" as="geometry">
            <mxPoint x="680" y="1180" as="targetPoint" />
          </mxGeometry>
        </mxCell>
        <mxCell id="huZdh_4YWuAhXo4pvME7-41" value="writeDouble" style="text;html=1;align=center;verticalAlign=middle;resizable=0;points=[];labelBackgroundColor=#ffffff;" vertex="1" connectable="0" parent="huZdh_4YWuAhXo4pvME7-40">
          <mxGeometry x="-0.08" y="1" relative="1" as="geometry">
            <mxPoint x="0.5" y="-13" as="offset" />
          </mxGeometry>
        </mxCell>
        <mxCell id="huZdh_4YWuAhXo4pvME7-42" value="&lt;span style=&quot;font-size: 9px&quot;&gt;PlainValuesWriter&lt;/span&gt;" style="rounded=1;whiteSpace=wrap;html=1;fillColor=#dae8fc;strokeColor=#6c8ebf;" vertex="1" parent="1">
          <mxGeometry x="640" y="980" width="80" height="100" as="geometry" />
        </mxCell>
        <mxCell id="huZdh_4YWuAhXo4pvME7-43" style="edgeStyle=orthogonalEdgeStyle;rounded=0;orthogonalLoop=1;jettySize=auto;html=1;" edge="1" parent="1" source="huZdh_4YWuAhXo4pvME7-44">
          <mxGeometry relative="1" as="geometry">
            <mxPoint x="180" y="1370" as="targetPoint" />
          </mxGeometry>
        </mxCell>
        <mxCell id="huZdh_4YWuAhXo4pvME7-44" value="OutputStream" style="rounded=1;whiteSpace=wrap;html=1;" vertex="1" parent="1">
          <mxGeometry x="140" y="1200" width="80" height="100" as="geometry" />
        </mxCell>
        <mxCell id="huZdh_4YWuAhXo4pvME7-45" style="edgeStyle=orthogonalEdgeStyle;rounded=0;orthogonalLoop=1;jettySize=auto;html=1;" edge="1" parent="1" source="huZdh_4YWuAhXo4pvME7-46">
          <mxGeometry relative="1" as="geometry">
            <mxPoint x="280" y="1370" as="targetPoint" />
          </mxGeometry>
        </mxCell>
        <mxCell id="huZdh_4YWuAhXo4pvME7-46" value="OutputStream" style="rounded=1;whiteSpace=wrap;html=1;" vertex="1" parent="1">
          <mxGeometry x="240" y="1200" width="80" height="100" as="geometry" />
        </mxCell>
        <mxCell id="huZdh_4YWuAhXo4pvME7-47" style="edgeStyle=orthogonalEdgeStyle;rounded=0;orthogonalLoop=1;jettySize=auto;html=1;" edge="1" parent="1" source="huZdh_4YWuAhXo4pvME7-48">
          <mxGeometry relative="1" as="geometry">
            <mxPoint x="380" y="1370" as="targetPoint" />
          </mxGeometry>
        </mxCell>
        <mxCell id="huZdh_4YWuAhXo4pvME7-48" value="OutputStream" style="rounded=1;whiteSpace=wrap;html=1;" vertex="1" parent="1">
          <mxGeometry x="340" y="1200" width="80" height="100" as="geometry" />
        </mxCell>
        <mxCell id="huZdh_4YWuAhXo4pvME7-49" style="edgeStyle=orthogonalEdgeStyle;rounded=0;orthogonalLoop=1;jettySize=auto;html=1;" edge="1" parent="1" source="huZdh_4YWuAhXo4pvME7-50">
          <mxGeometry relative="1" as="geometry">
            <mxPoint x="480" y="1370" as="targetPoint" />
          </mxGeometry>
        </mxCell>
        <mxCell id="huZdh_4YWuAhXo4pvME7-50" value="OutputStream" style="rounded=1;whiteSpace=wrap;html=1;" vertex="1" parent="1">
          <mxGeometry x="440" y="1200" width="80" height="100" as="geometry" />
        </mxCell>
        <mxCell id="huZdh_4YWuAhXo4pvME7-51" style="edgeStyle=orthogonalEdgeStyle;rounded=0;orthogonalLoop=1;jettySize=auto;html=1;" edge="1" parent="1" source="huZdh_4YWuAhXo4pvME7-52">
          <mxGeometry relative="1" as="geometry">
            <mxPoint x="580" y="1370" as="targetPoint" />
          </mxGeometry>
        </mxCell>
        <mxCell id="huZdh_4YWuAhXo4pvME7-52" value="OutputStream" style="rounded=1;whiteSpace=wrap;html=1;" vertex="1" parent="1">
          <mxGeometry x="540" y="1200" width="80" height="100" as="geometry" />
        </mxCell>
        <mxCell id="huZdh_4YWuAhXo4pvME7-53" style="edgeStyle=orthogonalEdgeStyle;rounded=0;orthogonalLoop=1;jettySize=auto;html=1;" edge="1" parent="1" source="huZdh_4YWuAhXo4pvME7-54">
          <mxGeometry relative="1" as="geometry">
            <mxPoint x="680" y="1370" as="targetPoint" />
          </mxGeometry>
        </mxCell>
        <mxCell id="huZdh_4YWuAhXo4pvME7-54" value="OutputStream" style="rounded=1;whiteSpace=wrap;html=1;" vertex="1" parent="1">
          <mxGeometry x="640" y="1200" width="80" height="100" as="geometry" />
        </mxCell>
        <mxCell id="huZdh_4YWuAhXo4pvME7-55" value="parquet file" style="rounded=1;whiteSpace=wrap;html=1;" vertex="1" parent="1">
          <mxGeometry x="120" y="1380" width="620" height="50" as="geometry" />
        </mxCell>
        <mxCell id="huZdh_4YWuAhXo4pvME7-56" value="abstruct class ColumnWriteBase implements ColumnWriter&amp;nbsp;" style="rounded=0;whiteSpace=wrap;html=1;fillColor=#60a917;strokeColor=#2D7600;fontColor=#ffffff;" vertex="1" parent="1">
          <mxGeometry x="140" y="900" width="580" height="40" as="geometry" />
        </mxCell>
        <mxCell id="huZdh_4YWuAhXo4pvME7-57" value="Statistics#updateStats" style="rounded=0;whiteSpace=wrap;html=1;fillColor=#60a917;strokeColor=#2D7600;fontColor=#ffffff;" vertex="1" parent="1">
          <mxGeometry x="140" y="1140" width="580" height="40" as="geometry" />
        </mxCell>
      </root>
    </mxGraphModel>
  </diagram>
</mxfile>
